<svg xmlns="http://www.w3.org/2000/svg" viewBox="0 0 200 171.43"><defs><style>.cls-1{fill:#ebebeb;}</style></defs><title>Asset 43</title><g id="Layer_2" data-name="Layer 2"><g id="Layer_1-2" data-name="Layer 1"><path class="cls-1" d="M100.55,171.43c19.79-12.64,40.46-23.58,59-38.7,17.55-14.3,33.24-33.11,38.45-58.18,3.25-15.6,2.91-32.1-4.12-46.26-13.28-26.76-44-34-67.53-24C117.13,8.21,103,16.49,100,28.4,97,16.49,82.87,8.21,73.63,4.29,50.1-5.7,19.38,1.53,6.1,28.29-.93,42.45-1.27,59,2,74.55c5.21,25.07,20.9,43.88,38.45,58.18,18.56,15.12,39.23,26.06,59,38.7"/></g></g></svg>