<svg xmlns="http://www.w3.org/2000/svg" viewBox="0 0 379 192.82"><defs><style>.cls-1{fill:#ebebeb;opacity:0.5;}</style></defs><title>khAsset 1</title><g id="Layer_2" data-name="Layer 2"><g id="Layer_1-2" data-name="Layer 1"><path class="cls-1" d="M189.5,36.57a3.14,3.14,0,0,1-3.32-3.32V3.32a3.32,3.32,0,1,1,6.64,0V33.25A3.14,3.14,0,0,1,189.5,36.57Z"/><path class="cls-1" d="M124.34,39.89a3.66,3.66,0,0,1-3.33-2C116.36,26.6,113,20,113,20c-.67-2,0-3.33,2-4.66,2-.66,3.32,0,4.65,2,0,0,2.66,6.65,8,18.62.67,2,0,3.32-2,4.65C125.67,39.89,125,39.89,124.34,39.89Z"/><path class="cls-1" d="M35.24,130.32H33.91c-12-4.65-18.62-7.31-18.62-7.31-2-.67-2.66-2.66-2-4.66s2.66-2.66,4.65-2c0,0,6.65,2.66,18.62,7.31,2,.67,2.66,2.66,2,4.66A3.64,3.64,0,0,1,35.24,130.32Z"/><path class="cls-1" d="M342.43,127.66a3.64,3.64,0,0,1-3.32-2c-.67-2,0-3.33,2-4.66,10.64-4.65,17.29-7.31,18.62-8,2-.67,3.32,0,4.65,2s0,3.32-2,4.65c-.67.67-7.32,3.33-18,8Z"/><path class="cls-1" d="M252,38.56h-1.33a3,3,0,0,1-2-4c3.32-8.65,6-14,6.65-17.29L256,16c.67-2,2.66-2.66,4.66-2a3,3,0,0,1,2,4L262,20c-1.33,2.66-3.33,8.64-6.65,16.62A3.66,3.66,0,0,1,252,38.56Z"/><path class="cls-1" d="M33.25,192.82H3.32a3.32,3.32,0,1,1,0-6.64H33.25a3.32,3.32,0,1,1,0,6.64Z"/><path class="cls-1" d="M375.68,192.82H345.75a3.32,3.32,0,0,1,0-6.64h29.93a3.32,3.32,0,1,1,0,6.64Z"/><path class="cls-1" d="M71.81,75.14a4,4,0,0,1-2.66-.67l-14-14a3.29,3.29,0,0,1,4.65-4.66l14,14a3.21,3.21,0,0,1,0,4.65C73.81,75.14,72.48,75.14,71.81,75.14Z"/><path class="cls-1" d="M307.19,75.14a4,4,0,0,1-2.66-.67,3.21,3.21,0,0,1,0-4.65l14-14a3.3,3.3,0,1,1,4.66,4.66l-14,14A2.42,2.42,0,0,1,307.19,75.14Z"/><path class="cls-1" d="M124.34,39.89a3.66,3.66,0,0,1-3.33-2C116.36,26.6,113,20,113,20c-.67-2,0-3.33,2-4.66,2-.66,3.32,0,4.65,2,0,0,2.66,6.65,8,18.62.67,2,0,3.32-2,4.65C125.67,39.89,125,39.89,124.34,39.89Z"/><path class="cls-1" d="M35.24,130.32H33.91c-12-4.65-18.62-7.31-18.62-7.31-2-.67-2.66-2.66-2-4.66s2.66-2.66,4.65-2c0,0,6.65,2.66,18.62,7.31,2,.67,2.66,2.66,2,4.66A3.64,3.64,0,0,1,35.24,130.32Z"/><path class="cls-1" d="M342.43,127.66a3.64,3.64,0,0,1-3.32-2c-.67-2,0-3.33,2-4.66,10.64-4.65,17.29-7.31,18.62-8,2-.67,3.32,0,4.65,2s0,3.32-2,4.65c-.67.67-7.32,3.33-18,8Z"/><path class="cls-1" d="M252,38.56h-1.33a3,3,0,0,1-2-4c3.32-8.65,6-14,6.65-17.29L256,16c.67-2,2.66-2.66,4.66-2a3,3,0,0,1,2,4L262,20c-1.33,2.66-3.33,8.64-6.65,16.62A3.66,3.66,0,0,1,252,38.56Z"/><path class="cls-1" d="M71.81,75.14a4,4,0,0,1-2.66-.67l-14-14a3.29,3.29,0,0,1,4.65-4.66l14,14a3.21,3.21,0,0,1,0,4.65C73.81,75.14,72.48,75.14,71.81,75.14Z"/><path class="cls-1" d="M307.19,75.14a4,4,0,0,1-2.66-.67,3.21,3.21,0,0,1,0-4.65l14-14a3.3,3.3,0,1,1,4.66,4.66l-14,14A2.42,2.42,0,0,1,307.19,75.14Z"/><path class="cls-1" d="M157.58,29.92c-1.33,0-2.66-1.33-3.32-2.66l-4-20c-.66-2,.67-3.32,2.66-4,2,0,3.32.67,4,2.66l4,20c.66,2-.67,4-3.33,4Z"/><path class="cls-1" d="M352.4,160.91c-1.33,0-2.66-1.33-3.32-2.66-.67-2,.66-3.33,2.66-4l19.28-4c2-.66,3.33.67,4,2.66s-.66,3.32-2.66,4l-20,4Z"/><path class="cls-1" d="M96.41,55.19a3.48,3.48,0,0,1-2.66-1.33c-6.65-10.64-11.3-16.62-11.3-16.62-1.33-1.33-.67-3.33.66-4.66s3.33-.66,4.66.67c0,0,4,6,11.3,16.62,1.33,1.33.67,3.32-.66,4.65C97.74,54.52,97.08,55.19,96.41,55.19Z"/><path class="cls-1" d="M26.6,160.91h0l-20-4c-2-.67-2.66-2-2.66-4,.66-2,2-2.66,4-2.66,0,0,7.31,1.33,19.28,4,2,.66,2.66,2,2.66,4A3.39,3.39,0,0,1,26.6,160.91Z"/><path class="cls-1" d="M327.14,99.74a3.46,3.46,0,0,1-2.66-1.33c-1.33-1.33-.67-3.33.66-4.66,10-6.65,16-10.64,16.62-11.3a3.42,3.42,0,1,1,3.33,6c-.67.67-6.65,4.66-16.62,11.31Z"/><path class="cls-1" d="M221.42,29.92h0c-2.66-.66-3.33-2-3.33-4,2-10,3.33-16,3.33-18.62V6.65c.66-2,2-2.66,4-2.66,2,.66,2.65,2,2.65,4v.66a175.28,175.28,0,0,0-3.32,18.62C224.08,28.59,222.75,29.92,221.42,29.92Z"/><path class="cls-1" d="M51.86,99.74a2.42,2.42,0,0,1-2-.67L33.25,88.43c-1.33-1.33-2-3.32-.67-4.65s3.33-2,4.66-.67L53.86,94.42c1.33,1.33,2,3.32.66,4.65C53.86,99.07,52.53,99.74,51.86,99.74Z"/><path class="cls-1" d="M282.59,55.19a2.44,2.44,0,0,1-2-.67c-1.33-1.33-2-3.32-.66-4.65l11.3-16.62c1.33-1.33,3.33-2,4.66-.67s2,3.33.66,4.66l-11.3,16.62A5.11,5.11,0,0,1,282.59,55.19Z"/></g></g></svg>