<svg xmlns="http://www.w3.org/2000/svg" viewBox="0 0 15.75 15.75"><defs><style>.cls-1{fill:none;stroke:#ebebeb;stroke-miterlimit:10;stroke-width:0.75px;}.cls-2{fill:#ebebeb;}</style></defs><title>khAsset 1</title><g id="Layer_2" data-name="Layer 2"><g id="Icons"><circle class="cls-1" cx="7.88" cy="7.88" r="7.5"/><path class="cls-2" d="M9,10.57l-.61.22a1.62,1.62,0,0,1-.52.08,1,1,0,0,1-.71-.22A.76.76,0,0,1,7,10.08a2.45,2.45,0,0,1,0-.27A2.1,2.1,0,0,1,7,9.5l.31-1.11c0-.11.06-.21.08-.31a1.18,1.18,0,0,0,0-.26.42.42,0,0,0-.08-.29A.48.48,0,0,0,7,7.44a1.18,1.18,0,0,0-.25,0l-.22.07.08-.34L7.23,7a1.69,1.69,0,0,1,.53-.09,1,1,0,0,1,.7.22.71.71,0,0,1,.24.56s0,.14,0,.26a2.72,2.72,0,0,1-.07.33L8.31,9.39a2.05,2.05,0,0,0-.07.31,1.61,1.61,0,0,0,0,.25.39.39,0,0,0,.1.31.57.57,0,0,0,.34.07l.26,0a.93.93,0,0,0,.21-.08ZM9,6.07a.74.74,0,0,1-.53.21.76.76,0,0,1-.53-.21.66.66,0,0,1-.22-.49.7.7,0,0,1,.22-.5.79.79,0,0,1,.53-.2.78.78,0,0,1,.53.2.66.66,0,0,1,.22.5A.63.63,0,0,1,9,6.07Z"/></g></g></svg>