<svg xmlns="http://www.w3.org/2000/svg" viewBox="0 0 31 26"><defs><style>.cls-1,.cls-2,.cls-3{fill:none;stroke:#ebebeb;}.cls-1{stroke-linecap:round;}.cls-1,.cls-3{stroke-linejoin:round;}.cls-2{stroke-miterlimit:10;}</style></defs><title>khAsset 40</title><g id="Layer_2" data-name="Layer 2"><g id="Layer_1-2" data-name="Layer 1"><rect class="cls-1" x="0.5" y="5.5" width="30" height="20" rx="3" ry="3"/><path class="cls-1" d="M8.5,5.44V4.5a4,4,0,0,1,4-4h6a4,4,0,0,1,4,4v.91"/><line class="cls-2" x1="26" y1="10.16" x2="26" y2="5.5"/><line class="cls-2" x1="26" y1="15.46" x2="26" y2="25.33"/><polygon class="cls-3" points="21.54 17 20 12.23 26.46 10 28 14.77 21.54 17"/><ellipse class="cls-1" cx="10.5" cy="20.5" rx="3.5" ry="2.5"/><line class="cls-2" x1="5" y1="9.51" x2="5" y2="5.5"/><line class="cls-2" x1="5" y1="13.49" x2="5" y2="25.33"/><path class="cls-2" d="M5,13.49A2.45,2.45,0,0,0,6.5,14a2.5,2.5,0,0,0,0-5A2.45,2.45,0,0,0,5,9.51a2.48,2.48,0,0,0,0,4Z"/></g></g></svg>