<svg xmlns="http://www.w3.org/2000/svg" viewBox="0 0 34 27.72"><defs><style>.cls-1{fill:none;stroke:#ebebeb;stroke-linecap:round;stroke-linejoin:round;}</style></defs><title>khAsset 40</title><g id="Layer_2" data-name="Layer 2"><g id="Layer_1-2" data-name="Layer 1"><path class="cls-1" d="M32.05,9.48c-.27-1.08-.16-2.21-.51-3.27A8.21,8.21,0,0,0,29,2.46,8.54,8.54,0,0,0,21.46.77a8.46,8.46,0,0,0-5.58,5,8.44,8.44,0,0,1,5.65,5.21,6.3,6.3,0,0,1,.31,3.38c-.37,1.81-1.68,3.29-2.3,5-.05.16-.08.31-.12.47,1.53.53,3.06,1.06,4.63,1.48.63.17,1.41.3,1.86-.18.62-.65.05-1.92.74-2.51a1.46,1.46,0,0,1,1.42-.09c.9.31,1.82.7,2.56-.17.53-.62.3-1.05.09-1.63a1.22,1.22,0,0,1,.36-1.29,2.44,2.44,0,0,0,.68-2.11A1.41,1.41,0,0,0,33,13.23a1.18,1.18,0,0,0,.52-1.06C33.4,11.19,32.3,10.48,32.05,9.48Z"/><path class="cls-1" d="M15.48,25.27a.94.94,0,0,0,.61-1.08,7.23,7.23,0,0,1,.15-4c.62-1.74,1.93-3.22,2.3-5a6.33,6.33,0,0,0-.31-3.39,8.41,8.41,0,0,0-5.69-5.21A8.56,8.56,0,0,0,5,8.23,8.31,8.31,0,0,0,2.46,12C2.11,13,2.22,14.18,2,15.26S.6,17,.5,17.94A1.2,1.2,0,0,0,1,19a1.38,1.38,0,0,0,1.22.07,2.45,2.45,0,0,0,.68,2.12,1.21,1.21,0,0,1,.36,1.28c-.21.59-.44,1,.09,1.64.74.87,1.66.48,2.56.16a1.48,1.48,0,0,1,1.42.09c.69.59.12,1.86.74,2.52.45.47,1.23.34,1.86.17C11.82,26.56,13.65,25.91,15.48,25.27Z"/></g></g></svg>