<svg xmlns="http://www.w3.org/2000/svg" viewBox="0 0 23 30"><defs><style>.cls-1{fill:none;stroke:#ebebeb;stroke-linecap:round;stroke-miterlimit:10;}</style></defs><title>khAsset 40</title><g id="Layer_2" data-name="Layer 2"><g id="Layer_1-2" data-name="Layer 1"><path class="cls-1" d="M11.78,13.69l1.68,5.49c0,.13.16.29.29.29H19.2a.26.26,0,0,1,.18.48L15,23.32a.28.28,0,0,0-.1.32l1.69,5.45a.3.3,0,0,1-.46.33l-4.4-3.33a.3.3,0,0,0-.36,0l-4.4,3.35a.3.3,0,0,1-.46-.34l1.69-5.48a.31.31,0,0,0-.1-.34L3.62,20a.26.26,0,0,1,.18-.48H9.25c.13,0,.25-.16.29-.29l1.68-5.45A.29.29,0,0,1,11.78,13.69Z"/><path class="cls-1" d="M11.38,10.48.86,7.61A.51.51,0,0,1,.5,7.12V1A.48.48,0,0,1,1,.5H22a.48.48,0,0,1,.48.5V7.12a.51.51,0,0,1-.36.49L11.62,10.48A.33.33,0,0,1,11.38,10.48Z"/><line class="cls-1" x1="17" y1="3" x2="17" y2="6"/><line class="cls-1" x1="6" y1="3" x2="6" y2="6"/></g></g></svg>