<svg xmlns="http://www.w3.org/2000/svg" viewBox="0 0 31 31"><defs><style>.cls-1{fill:none;stroke:#ebebeb;stroke-linecap:round;stroke-linejoin:round;}</style></defs><title>khAsset 40</title><g id="Layer_2" data-name="Layer 2"><g id="Layer_1-2" data-name="Layer 1"><line class="cls-1" x1="15.5" y1="28.5" x2="23" y2="30.5"/><polyline class="cls-1" points="23 12.5 30.5 10.5 30.5 15 30.5 19.5 30.5 24 30.5 28.5 23 30.5"/><line class="cls-1" x1="23" y1="12.5" x2="22.18" y2="12.28"/><line class="cls-1" x1="8" y1="12.5" x2="8.82" y2="12.28"/><polyline class="cls-1" points="8 12.5 0.5 10.5 0.5 15 0.5 19.5 0.5 24 0.5 28.5 8 30.5"/><line class="cls-1" x1="15.5" y1="28.5" x2="8" y2="30.5"/><line class="cls-1" x1="8" y1="12.5" x2="8" y2="30.5"/><line class="cls-1" x1="23" y1="12.5" x2="23" y2="30.5"/><line class="cls-1" x1="15.5" y1="28.5" x2="15.5" y2="22.5"/><path class="cls-1" d="M8.82,12.28A10.6,10.6,0,0,1,7.5,8.12,7.81,7.81,0,0,1,15.5.5a7.81,7.81,0,0,1,8,7.62,10.6,10.6,0,0,1-1.32,4.16"/><path class="cls-1" d="M8.82,12.28A72.18,72.18,0,0,0,15.5,22.5"/><path class="cls-1" d="M15.5,22.5a72.18,72.18,0,0,0,6.68-10.22"/><path class="cls-1" d="M17.9,8.36A2.4,2.4,0,1,1,15.5,6,2.37,2.37,0,0,1,17.9,8.36Z"/></g></g></svg>