<svg xmlns="http://www.w3.org/2000/svg" viewBox="0 0 31 29"><defs><style>.cls-1{fill:none;stroke:#ebebeb;stroke-linecap:round;stroke-linejoin:round;}</style></defs><title>khAsset 40</title><g id="Layer_2" data-name="Layer 2"><g id="Layer_1-2" data-name="Layer 1"><line class="cls-1" x1="12.83" y1="4.25" x2="20.75" y2="12.17"/><path class="cls-1" d="M17,15.94,24.5,8.42a2.8,2.8,0,0,1,0-2.4L19,.5a2.8,2.8,0,0,1-2.4,0L.5,16.58A2.8,2.8,0,0,1,.5,19L6,24.5a2.74,2.74,0,0,1,1.62-.22"/><path class="cls-1" d="M17,15.94,26,12.5a2.53,2.53,0,0,0,1.94.82l2.52,6.21a2.36,2.36,0,0,0-.85,1.87L11,28.5A2.53,2.53,0,0,0,9,27.68l-1.38-3.4"/><path class="cls-1" d="M17,15.94,7.35,19.6a2.36,2.36,0,0,1-.85,1.87l1.14,2.81"/><line class="cls-1" x1="21.68" y1="14.16" x2="25.29" y2="23.06"/><line class="cls-1" x1="11.2" y1="25.41" x2="18.1" y2="22.79"/><line class="cls-1" x1="10.59" y1="23.93" x2="12.9" y2="23.06"/></g></g></svg>