<svg xmlns="http://www.w3.org/2000/svg" viewBox="0 0 31 19"><defs><style>.cls-1{fill:#ebebeb;}.cls-2,.cls-3{fill:none;stroke:#ebebeb;stroke-linejoin:round;}.cls-3{stroke-linecap:round;}</style></defs><title>khAsset 40</title><g id="Layer_2" data-name="Layer 2"><g id="Layer_1-2" data-name="Layer 1"><circle class="cls-1" cx="11.5" cy="9.5" r="1.5"/><path class="cls-1" d="M11.5,8.5a1,1,0,1,1-1,1,1,1,0,0,1,1-1m0-1a2,2,0,1,0,2,2,2,2,0,0,0-2-2Z"/><ellipse class="cls-1" cx="19.34" cy="9.5" rx="1.44" ry="1.39"/><path class="cls-1" d="M19.34,8.61a.89.89,0,1,1-.94.89.91.91,0,0,1,.94-.89m0-1A1.89,1.89,0,1,0,21.27,9.5a1.91,1.91,0,0,0-1.93-1.89Z"/><path class="cls-1" d="M24.5,3.5a1,1,0,1,0,1,1,1,1,0,0,0-1-1Z"/><path class="cls-1" d="M24.5,7.5a1,1,0,1,0,1,1,1,1,0,0,0-1-1Z"/><path class="cls-1" d="M22.5,5.5a1,1,0,1,0,1,1,1,1,0,0,0-1-1Z"/><path class="cls-1" d="M26.5,5.5a1,1,0,1,0,1,1,1,1,0,0,0-1-1Z"/><path class="cls-2" d="M20.81,12.61a2,2,0,0,1-3.33-.11h-4a2,2,0,0,1-3.33.11l-2,.36-.33,1a9.73,9.73,0,0,1-1.45,3.07,3.58,3.58,0,0,1-3,1.43A3.45,3.45,0,0,1,.61,15.69,9.54,9.54,0,0,1,1,11.62c.47-2,.93-4,1.4-6a12.24,12.24,0,0,1,.88-2.77,4.36,4.36,0,0,1,2-2.07A2.83,2.83,0,0,1,8.14,1a2.5,2.5,0,0,0,2.76.38h9.2A2.5,2.5,0,0,0,22.86,1,2.83,2.83,0,0,1,25.73.76a4.36,4.36,0,0,1,2,2.07,12.24,12.24,0,0,1,.88,2.77c.47,2,.93,4,1.4,6a9.54,9.54,0,0,1,.34,4.07,3.45,3.45,0,0,1-2.78,2.79,3.58,3.58,0,0,1-3-1.43A9.73,9.73,0,0,1,23.12,14c-.12-.38-.25-.75-.37-1.12Z"/><line class="cls-3" x1="4.5" y1="6.5" x2="8.5" y2="6.5"/><line class="cls-3" x1="6.5" y1="4.5" x2="6.5" y2="8.5"/></g></g></svg>