<svg xmlns="http://www.w3.org/2000/svg" viewBox="0 0 1000 320"><defs><style>.cls-1{fill:#ebebeb;}</style></defs><title>khAsset 2</title><g id="Layer_2" data-name="Layer 2"><g id="Layer_1-2" data-name="Layer 1"><path class="cls-1" d="M0,153.6l116.6,51.3L173.8,320,320,0Zm132.1,46.9L287.8,34.3,173.2,283.2ZM285.8,32.3l-165,157.1L38,153Z"/><path class="cls-1" d="M400,110a2.9,2.9,0,0,1,2.9-2.9h61.5a2.9,2.9,0,0,1,2.9,2.9v12.4a2.9,2.9,0,0,1-2.9,2.9H419.7v28.3H457a3,3,0,0,1,2.9,2.9v12.4a3,3,0,0,1-2.9,2.9H419.7V210a3,3,0,0,1-2.9,2.9H402.9A2.9,2.9,0,0,1,400,210Z"/><path class="cls-1" d="M500.3,110a2.9,2.9,0,0,1,2.9-2.9h13.9A3,3,0,0,1,520,110v84.7h38.5a2.9,2.9,0,0,1,2.9,2.9V210a2.9,2.9,0,0,1-2.9,2.9H503.2a2.9,2.9,0,0,1-2.9-2.9V110Z"/><path class="cls-1" d="M588.7,110a3,3,0,0,1,2.9-2.9H606a2.9,2.9,0,0,1,2.9,2.9v61.8c0,12.8,8.8,23,21.9,23s22.1-10.1,22.1-22.8V110.1a2.9,2.9,0,0,1,2.9-2.9h14.4a3,3,0,0,1,2.9,2.9v62.8c0,23-18.3,41.5-42.1,41.5s-42-18.6-42-41.5V110Z"/><path class="cls-1" d="M760.6,105.6c13.6,0,26.6,5.3,36.9,14a2.91,2.91,0,0,1,.2,4.2l-9.4,9.8a2.56,2.56,0,0,1-3.9,0,34.49,34.49,0,0,0-22.8-8.8c-18.9,0-33.8,16.2-33.8,35s15,34.6,34,34.6a47.17,47.17,0,0,0,18-3.8V177.8H767.7a2.74,2.74,0,0,1-2.9-2.7V163.2a2.78,2.78,0,0,1,2.9-2.9h29a2.87,2.87,0,0,1,2.7,2.9v38.7a2.81,2.81,0,0,1-1.2,2.4,76.68,76.68,0,0,1-37.5,9.8,54.25,54.25,0,0,1-.1-108.5Z"/><path class="cls-1" d="M836.6,110a3,3,0,0,1,2.9-2.9h14a3,3,0,0,1,2.9,2.9V210a3,3,0,0,1-2.9,2.9h-14a3,3,0,0,1-2.9-2.9Z"/><path class="cls-1" d="M945.6,105.6a54.35,54.35,0,1,1-54.2,54.5A54.29,54.29,0,0,1,945.6,105.6Zm0,89.1a34.83,34.83,0,0,0,34.7-34.6c0-19-15.7-34.9-34.7-34.9S911,141.1,911,160.1A34.68,34.68,0,0,0,945.6,194.7Z"/></g></g></svg>