<?xml version="1.0" encoding="utf-8"?>
<!-- Generator: Adobe Illustrator 22.0.1, SVG Export Plug-In . SVG Version: 6.00 Build 0)  -->
<svg version="1.1" id="Layer_1" xmlns="http://www.w3.org/2000/svg" xmlns:xlink="http://www.w3.org/1999/xlink" x="0px" y="0px"
	 viewBox="0 0 1000 320" style="enable-background:new 0 0 1000 320;" xml:space="preserve">
<style type="text/css">
	.st0{fill:#EBEBEB;}
</style>
<path class="st0" d="M0,154l116.6,51.3l57.2,115.1L320,0.4L0,154z M132.1,200.9L287.8,34.7L173.2,283.6L132.1,200.9z M285.8,32.7
	l-165,157.1L38,153.4L285.8,32.7z"/>
<g>
	<path class="st0" d="M400,110.4c0-1.5,1.2-2.9,2.9-2.9h61.5c1.7,0,2.9,1.4,2.9,2.9v12.4c0,1.5-1.2,2.9-2.9,2.9h-44.7V154h37.3
		c1.5,0,2.9,1.4,2.9,2.9v12.4c0,1.5-1.4,2.9-2.9,2.9h-37.3v38.2c0,1.5-1.4,2.9-2.9,2.9h-13.9c-1.7,0-2.9-1.4-2.9-2.9V110.4z"/>
	<path class="st0" d="M500.3,110.4c0-1.5,1.2-2.9,2.9-2.9h13.9c1.5,0,2.9,1.4,2.9,2.9v84.7h38.5c1.7,0,2.9,1.4,2.9,2.9v12.4
		c0,1.5-1.2,2.9-2.9,2.9h-55.3c-1.7,0-2.9-1.4-2.9-2.9V110.4z"/>
	<path class="st0" d="M588.7,110.4c0-1.5,1.4-2.9,2.9-2.9h14.4c1.7,0,2.9,1.4,2.9,2.9v61.8c0,12.8,8.8,23,21.9,23
		c13.1,0,22.1-10.1,22.1-22.8v-61.9c0-1.5,1.2-2.9,2.9-2.9h14.4c1.5,0,2.9,1.4,2.9,2.9v62.8c0,23-18.3,41.5-42.1,41.5
		c-23.7,0-42-18.6-42-41.5V110.4z"/>
	<path class="st0" d="M760.6,106c13.6,0,26.6,5.3,36.9,14c1.2,1.2,1.4,3,0.2,4.2l-9.4,9.8c-1.2,1.2-2.6,1.2-3.9,0
		c-6.5-5.7-14.5-8.8-22.8-8.8c-18.9,0-33.8,16.2-33.8,35c0,18.7,15,34.6,34,34.6c8.5,0,15-2.6,18-3.8v-12.8h-12.1
		c-1.7,0-2.9-1.2-2.9-2.7v-11.9c0-1.7,1.2-2.9,2.9-2.9h29c1.5,0,2.7,1.4,2.7,2.9v38.7c0,1.2-0.6,2-1.2,2.4c0,0-15.6,9.8-37.5,9.8
		c-30.1,0-54.2-23.9-54.2-54.1S730.5,106,760.6,106z"/>
	<path class="st0" d="M836.6,110.4c0-1.5,1.4-2.9,2.9-2.9h14c1.5,0,2.9,1.4,2.9,2.9v100c0,1.5-1.4,2.9-2.9,2.9h-14
		c-1.5,0-2.9-1.4-2.9-2.9V110.4z"/>
	<path class="st0" d="M945.6,106c30.2,0,54.4,24.3,54.4,54.5s-24.2,54.2-54.4,54.2c-30.2,0-54.2-24-54.2-54.2S915.4,106,945.6,106z
		 M945.6,195.1c19,0,34.7-15.6,34.7-34.6c0-19-15.7-34.9-34.7-34.9c-19,0-34.6,15.9-34.6,34.9C911,179.6,926.6,195.1,945.6,195.1z"
		/>
</g>
</svg>
