<svg xmlns="http://www.w3.org/2000/svg" viewBox="0 0 299.26 69.35"><defs><style>.cls-1{fill:#ebebeb;}</style></defs><title>Asset 1</title><g id="Layer_2" data-name="Layer 2"><g id="svg3079"><path id="path3059" class="cls-1" d="M218.85,56.79H207.32V12.41h11.53ZM191.56,12.41l-7.41,29.74-8.69-29.74H164.32l-8.67,29.74-7.44-29.74H137L149.2,56.79h11.9l8.79-30.44,8.78,30.44h11.9l12.29-44.38ZM136,44.24c0-8.5-4.51-11.35-14.39-14.57-4.65-1.52-9-2.69-9-6.3,0-3.18,3.23-4.23,5.64-4.23,2,0,5.88.43,6.2,5.14h10.89c-.19-9-7.5-12.9-16.9-12.9-5.83,0-10.65,1.65-13.68,4.64a11.81,11.81,0,0,0-3.41,8.33c0,8.26,5.52,11.57,11.76,13.47,7,2.14,11.64,3.41,11.64,7.27,0,2.58-2,5.15-6.08,5.15-5.12,0-7-3.06-7.1-6.07h-11c0,10.23,8.62,14,18.13,14,12.15,0,17.32-6.92,17.32-13.9m123.62,0c0-9.79-7.12-12.37-15.73-14.94C239.73,28.08,236,27,236,23.37c0-3.18,3.22-4.23,5.64-4.23,2,0,5.87.43,6.18,5.14h10.91c-.19-9-7.49-12.9-16.91-12.9C236,11.38,231.17,13,228.15,16a11.89,11.89,0,0,0-3.4,8.33c0,8.26,5.5,11.57,11.76,13.47,7,2.14,11.64,3.41,11.64,7.27,0,2.58-2,5.15-6.06,5.15-5.15,0-7-3.06-7.12-6.07h-11c0,10.23,8.61,14,18.15,14,12.12,0,17.52-6.92,17.52-13.9m39.65,0c0-9.79-7.16-12.37-15.76-14.94-4.16-1.22-7.86-2.32-7.86-5.93,0-3.18,3.21-4.23,5.63-4.23,2,0,5.88.43,6.19,5.14h10.93c-.19-9-7.53-12.9-16.92-12.9-5.83,0-10.66,1.65-13.7,4.64a11.89,11.89,0,0,0-3.4,8.33c0,8.26,5.51,11.57,11.75,13.47,7,2.14,11.65,3.41,11.65,7.27,0,2.58-2,5.15-6.07,5.15-5.13,0-7-3.06-7.11-6.07h-11c0,10.23,8.61,14,18.15,14,12.16,0,17.56-6.92,17.56-13.9"/><path class="cls-1" d="M55.62,0,0,69.35H75.89L93,0Zm8.66,41.07h0V56H51.47V41.07H36.55V28.28H51.48V13.34h12.8V28.28H79.21V41.07Z"/></g></g></svg>