<?xml version="1.0" encoding="utf-8"?>
<!-- Generator: Adobe Illustrator 22.0.0, SVG Export Plug-In . SVG Version: 6.00 Build 0)  -->
<svg version="1.1" id="Layer_1" xmlns="http://www.w3.org/2000/svg" xmlns:xlink="http://www.w3.org/1999/xlink" x="0px" y="0px"
	 viewBox="0 0 35 35" style="enable-background:new 0 0 35 35;" xml:space="preserve">
<style type="text/css">
	.st0{fill:none;stroke:#EBEBEB;stroke-miterlimit:10;}
	.st1{fill:none;stroke:#EBEBEB;stroke-linecap:round;stroke-linejoin:round;stroke-miterlimit:10;}
</style>
<title>Artboard 1</title>
<g>
	<path class="st0" d="M25.7,15.9c4.1,0.7,6.8,1.9,6.8,3.3c0,2.2-6.7,3-15,3c-8.3,0-15-0.8-15-3c0-1.4,2.7-2.6,6.8-3.3
		c2.4-0.4,5.2-0.7,8.2-0.7C20.5,15.2,23.4,15.5,25.7,15.9z"/>
	<path class="st0" d="M25.7,15.9c0.5-1.1,0.8-2.4,0.8-3.7c0-5-4-9-9-9c-5,0-9,4-9,9c0,1.3,0.3,2.5,0.8,3.7"/>
	<path class="st1" d="M16.5,5.8c0.3,0,0.6-0.1,1-0.1"/>
	<path class="st1" d="M11,12.2c0-0.4,0-0.9,0.1-1.3c0.1-0.4,0.2-0.8,0.4-1.2s0.4-0.8,0.6-1.1c0.2-0.3,0.5-0.7,0.8-1
		c0.3-0.3,0.6-0.6,1-0.8c0.3-0.2,0.7-0.4,1.1-0.6"/>
	<circle class="st1" cx="17.5" cy="19.2" r="0.5"/>
	<circle class="st1" cx="22.5" cy="19.2" r="0.5"/>
	<circle class="st1" cx="12.5" cy="19.2" r="0.5"/>
	<g>
		<line class="st1" x1="6" y1="24.8" x2="6" y2="29.8"/>
		<line class="st1" x1="10" y1="24.8" x2="10" y2="29.8"/>
		<line class="st1" x1="8" y1="24.8" x2="8" y2="31.8"/>
	</g>
	<g>
		<line class="st1" x1="25" y1="24.8" x2="25" y2="29.8"/>
		<line class="st1" x1="29" y1="24.8" x2="29" y2="29.8"/>
		<line class="st1" x1="27" y1="24.8" x2="27" y2="31.8"/>
	</g>
</g>
</svg>
