<?xml version="1.0" encoding="utf-8"?>
<!-- Generator: Adobe Illustrator 22.0.0, SVG Export Plug-In . SVG Version: 6.00 Build 0)  -->
<svg version="1.1" id="Layer_1" xmlns="http://www.w3.org/2000/svg" xmlns:xlink="http://www.w3.org/1999/xlink" x="0px" y="0px"
	 viewBox="0 0 35 35" style="enable-background:new 0 0 35 35;" xml:space="preserve">
<style type="text/css">
	.st0{fill:#EBEBEB;}
</style>
<title>Artboard 1</title>
<g transform="translate(1 1)">
	<g>
		<path class="st0" d="M25,5.1c-0.4-0.5-1-0.7-1.8-0.7c-0.7,0-1.7,0.4-2.3,2.4l-1.2,4.5c-0.4-0.5-1-0.8-1.6-0.8l0,0l0,0
			c-0.7,0-1.3,0.4-1.7,1l0,0c-0.4-0.5-1-0.9-1.6-0.9l0,0h-0.1h-0.1l0,0c0,0,0,0-0.1,0c0,0,0,0-0.1,0l0,0c-0.4,0.1-0.8,0.3-1.1,0.6
			L12.5,6c-0.1-0.5-0.2-1-0.3-1.3C12,4.3,11.6,3,10.2,3C9.6,3,9.1,3.3,8.6,3.8C8.2,4.2,7.9,4.9,8,5.6l1,12.7
			c-1.3,0.7-1.5,1.6-1.5,3.8V22c0,2.1,1.5,3.7,2,4.2V28c0,1.1,0.9,2,2,2h9c1.1,0,2-0.9,2-2v-1.8c1.5-2,1.5-2.3,1.5-6.2v-1l1.5-12
			C25.6,6.2,25.4,5.6,25,5.1z M19.5,13v5.5c0,0.7-0.5,1.5-1.2,1.5S17,19.2,17,18.5V13c0-0.5,0.2-1,0.6-1.3c0.2-0.1,0.3-0.2,0.5-0.2
			c0.6,0,1.1,0.6,1.3,1.2C19.4,12.8,19.4,12.8,19.5,13C19.5,12.9,19.5,13,19.5,13z M15.1,18c0.1-0.2,0.2-0.3,0.2-0.4
			c0.5-1.1,0-2.6-1-3.2c-0.2-0.1-0.5-0.2-0.9-0.2V13c0-0.3,0.1-0.7,0.3-1c0.2-0.2,0.5-0.4,0.8-0.4c0.6,0,1.1,0.6,1.3,1.2
			c0,0.1,0.1,0.2,0.1,0.2l0,0v5.5c0,0.7-0.5,1.5-1.2,1.5c-0.3,0-0.6-0.2-0.9-0.5C14.4,19,14.8,18.5,15.1,18z M9.4,4.3
			C9.7,4,10,3.9,10.2,3.9c0.4,0,0.7,0.1,1.1,1c0.1,0.3,0.2,0.7,0.3,1.2l0.9,6.4c0,0.1,0,0.3,0,0.4v1.6c-0.2,0.2-0.5,0.4-0.8,0.8
			c-0.3,0.4-0.9,1.2-1.8,2L9,5.5C8.9,5.1,9.1,4.7,9.4,4.3z M24.5,6.9L23,19l0,0v1c0,3.8,0,3.8-1.4,5.7c-0.1,0.1-0.1,0.2-0.1,0.3v2
			c0,0.6-0.5,1-1,1h-9c-0.6,0-1-0.5-1-1v-2c0-0.2-0.1-0.3-0.2-0.4c-0.1,0-1.8-1.5-1.9-3.6c0-2.4,0.2-2.7,1.2-3.1
			c0.1-0.1,0.2-0.1,0.2-0.2c1.4-1,2.1-2.1,2.6-2.7c0.1-0.2,0.3-0.5,0.5-0.6c0.1,0,0.1,0,0.2-0.1c0.1,0,0.2-0.1,0.4-0.1
			c0.1,0,0.1,0,0.2,0.1c0.6,0.3,0.9,1.3,0.6,1.9c-0.3,0.6-1,1.6-3.2,3.4c-0.2,0.2-0.3,0.5-0.1,0.7c0.1,0.2,0.3,0.2,0.4,0.2
			c0.1,0,0.3-0.1,0.4-0.2c0.5-0.4,0.9-0.8,1.3-1.2c0.4,0.5,1,0.8,1.6,0.8c0.7,0,1.3-0.4,1.7-1c0.4,0.6,1.1,1,1.8,1
			c1.3,0,2.3-1.3,2.2-2.5V13c0-0.1,0-0.2,0-0.3l0,0L22,7.2c0.2-0.6,0.6-1.7,1.3-1.7c0.5,0,0.8,0.1,1,0.3C24.5,6,24.6,6.4,24.5,6.9z"
			/>
	</g>
</g>
</svg>
