<?xml version="1.0" encoding="utf-8"?>
<!-- Generator: Adobe Illustrator 22.0.0, SVG Export Plug-In . SVG Version: 6.00 Build 0)  -->
<svg version="1.1" id="Layer_1" xmlns="http://www.w3.org/2000/svg" xmlns:xlink="http://www.w3.org/1999/xlink" x="0px" y="0px"
	 viewBox="0 0 35 35" style="enable-background:new 0 0 35 35;" xml:space="preserve">
<style type="text/css">
	.st0{fill:none;stroke:#EBEBEB;stroke-linecap:round;stroke-linejoin:round;stroke-miterlimit:10;}
</style>
<title>Artboard 1</title>
<g>
	<path class="st0" d="M24.7,8.4l-1.9-3.9C22.6,4.2,22.3,4,21.9,4h-8.8c-0.4,0-0.7,0.2-0.9,0.6l-1.9,3.9C10.1,8.8,9.8,9,9.4,9H4.5
		c-1.1,0-2,0.9-2,2v18c0,1.1,0.9,2,2,2h26c1.1,0,2-0.9,2-2V11c0-1.1-0.9-2-2-2h-4.9C25.2,9,24.9,8.8,24.7,8.4z"/>
	<circle class="st0" cx="17.5" cy="20" r="7.5"/>
	<circle class="st0" cx="17.5" cy="20" r="5.5"/>
	<path class="st0" d="M17,16.5c-1.7,0-3,1.3-3,3"/>
	<line class="st0" x1="10.3" y1="17.5" x2="2.7" y2="17.5"/>
	<line class="st0" x1="32.3" y1="17.5" x2="24.7" y2="17.5"/>
	<circle class="st0" cx="28.5" cy="13" r="1.5"/>
	<polyline class="st0" points="5,8.9 5,6.5 8,6.5 8,9 	"/>
</g>
</svg>
