<?xml version="1.0" encoding="utf-8"?>
<!-- Generator: Adobe Illustrator 22.0.0, SVG Export Plug-In . SVG Version: 6.00 Build 0)  -->
<svg version="1.1" id="Layer_1" xmlns="http://www.w3.org/2000/svg" xmlns:xlink="http://www.w3.org/1999/xlink" x="0px" y="0px"
	 viewBox="0 0 35 35" style="enable-background:new 0 0 35 35;" xml:space="preserve">
<style type="text/css">
	.st0{fill:none;stroke:#EBEBEB;stroke-linecap:round;stroke-linejoin:round;stroke-miterlimit:10;}
</style>
<title>Artboard 1</title>
<g>
	<path class="st0" d="M19.4,24.8L6.8,12.2c-0.9-0.9-2.4-0.9-3.3,0l-0.4,0.4c-0.9,0.9-0.9,2.4,0,3.3l15,15c0.6,0.6,1.5,0.8,2.3,0.6"
		/>
	<path class="st0" d="M19.8,27.7c-0.8-0.4-1.9,0.5-2.6-0.3c-0.9-0.9,0.3-2.1-0.5-3c-0.9-0.9-2.1,0.3-3-0.5c-0.9-0.9,0.3-2.1-0.5-3
		c-0.9-0.9-2.1,0.3-3-0.5c-0.9-0.9,0.3-2.1-0.5-3c-0.9-0.9-2.1,0.3-3-0.5c-0.9-0.9,0.3-2.1-0.5-3"/>
	<path class="st0" d="M3.4,16.1c-1.1,1.7-0.9,3.9,0.5,5.4l8.6,8.6c1.4,1.4,3.7,1.6,5.3,0.6"/>
	<path class="st0" d="M18.6,19.1l-6.1-6.1c-1.4-1.4-3.6-1.6-5.2-0.6"/>
	<polyline class="st0" points="31.5,11 28.5,31.5 20.5,31.5 17.5,11 	"/>
	<line class="st0" x1="16.5" y1="10.5" x2="32.5" y2="10.5"/>
	<polyline class="st0" points="26.5,3.5 24.5,6 24.5,10.5 	"/>
</g>
<line class="st0" x1="19.8" y1="31.5" x2="20.8" y2="31.5"/>
</svg>
