<?xml version="1.0" encoding="utf-8"?>
<!-- Generator: Adobe Illustrator 22.0.0, SVG Export Plug-In . SVG Version: 6.00 Build 0)  -->
<svg version="1.1" id="Layer_1" xmlns="http://www.w3.org/2000/svg" xmlns:xlink="http://www.w3.org/1999/xlink" x="0px" y="0px"
	 viewBox="0 0 35 35" style="enable-background:new 0 0 35 35;" xml:space="preserve">
<style type="text/css">
	.st0{fill:none;stroke:#EBEBEB;stroke-linecap:round;stroke-miterlimit:10;}
	.st1{fill:none;stroke:#EBEBEB;stroke-linecap:round;stroke-linejoin:round;}
</style>
<title>Asset 15</title>
<g id="Layer_2_1_">
	<g id="Layer_1-2">
		<path class="st0" d="M17.5,14.5v14c0,1.7-1.3,3-3,3l0,0c-1.7,0-3-1.3-3-3v-0.2"/>
		<path class="st1" d="M29.5,15.5c0-1.1-1.3-2-3-2s-3,0.9-3,2c0-1.1-1.3-2-3-2s-3,0.9-3,2c0-1.1-1.3-2-3-2s-3,0.9-3,2
			c0-1.1-1.3-2-3-2s-3,0.9-3,2c0-6.6,5.4-12,12-12S29.5,8.9,29.5,15.5z"/>
	</g>
</g>
</svg>
