<?xml version="1.0" encoding="utf-8"?>
<!-- Generator: Adobe Illustrator 22.0.1, SVG Export Plug-In . SVG Version: 6.00 Build 0)  -->
<svg version="1.1" id="Layer_1" xmlns="http://www.w3.org/2000/svg" xmlns:xlink="http://www.w3.org/1999/xlink" x="0px" y="0px"
	 viewBox="0 0 35 35" style="enable-background:new 0 0 35 35;" xml:space="preserve">
<style type="text/css">
	.st0{fill:none;stroke:#EBEBEB;stroke-linecap:round;stroke-linejoin:round;stroke-miterlimit:10;}
</style>
<g>
	<g>
		<polygon class="st0" points="3.7,15.5 3.7,8.5 9.7,12.5 		"/>
		<path class="st0" d="M6.9,10.2c0.5-0.7,1-1.3,1.6-1.9c1.2-1.2,2.6-2.1,4.1-2.8s3.3-1,5.1-1c1.8,0,3.5,0.4,5.1,1s3,1.6,4.1,2.8
			s2.1,2.6,2.8,4.1"/>
	</g>
	<g>
		<polygon class="st0" points="31.3,19.8 31.3,26.8 25.3,22.8 		"/>
		<path class="st0" d="M28.1,25.4c-0.4,0.5-0.7,0.9-1.2,1.3c-1.2,1.2-2.6,2.1-4.1,2.8c-1.6,0.7-3.3,1-5.1,1c-1.8,0-3.5-0.4-5.1-1
			c-1.6-0.7-3-1.6-4.1-2.8s-2.1-2.6-2.8-4.1"/>
	</g>
</g>
</svg>
