<?xml version="1.0" encoding="utf-8"?>
<!-- Generator: Adobe Illustrator 22.0.0, SVG Export Plug-In . SVG Version: 6.00 Build 0)  -->
<svg version="1.1" id="Layer_1" xmlns="http://www.w3.org/2000/svg" xmlns:xlink="http://www.w3.org/1999/xlink" x="0px" y="0px"
	 viewBox="0 0 35 35" style="enable-background:new 0 0 35 35;" xml:space="preserve">
<style type="text/css">
	.st0{fill:none;stroke:#EBEBEB;stroke-linecap:round;stroke-linejoin:round;stroke-miterlimit:10;}
	.st1{fill:none;stroke:#EBEBEB;stroke-miterlimit:10;}
</style>
<g>
	<circle class="st0" cx="13.5" cy="5.5" r="3"/>
	<path class="st1" d="M13.5,14.5c-5,0-9,4-9,9c0,5,4,9,9,9c5,0,9-4,9-9c0-1-0.2-2-0.5-2.9"/>
	<polyline class="st0" points="30.5,31.5 27.5,32.5 22.5,20.5 13.5,20.5 13.5,14.5 13.5,8.5 	"/>
	<line class="st0" x1="13.5" y1="13.5" x2="17.5" y2="13.5"/>
	<path class="st0" d="M8.1,19.9c0.2-0.3,0.5-0.7,0.8-1"/>
	<path class="st0" d="M18.1,28.1c-0.3,0.3-0.6,0.6-1,0.8c-0.3,0.2-0.7,0.4-1.1,0.6c-0.4,0.2-0.8,0.3-1.2,0.4
		C14.4,30,13.9,30,13.5,30c-0.4,0-0.9,0-1.3-0.1c-0.4-0.1-0.8-0.2-1.2-0.4c-0.4-0.2-0.8-0.4-1.1-0.6c-0.3-0.2-0.7-0.5-1-0.8
		c-0.3-0.3-0.6-0.6-0.8-1c-0.2-0.3-0.4-0.7-0.6-1.1c-0.2-0.4-0.3-0.8-0.4-1.2C7,24.4,7,23.9,7,23.5s0-0.9,0.1-1.3
		c0-0.2,0.1-0.5,0.2-0.7"/>
</g>
</svg>
