<svg id="Layer_1" data-name="Layer 1" xmlns="http://www.w3.org/2000/svg" viewBox="0 0 35 35"><defs><style>.cls-1,.cls-2,.cls-3{fill:none;stroke:#ebebeb;}.cls-1{stroke-linecap:round;}.cls-1,.cls-3{stroke-linejoin:round;}.cls-2{stroke-miterlimit:10;}</style></defs><title>Artboard 1</title><rect class="cls-1" x="2.5" y="10" width="30" height="20" rx="3" ry="3"/><path class="cls-1" d="M10.5,9.94V9a4,4,0,0,1,4-4h6a4,4,0,0,1,4,4v.91"/><line class="cls-2" x1="28" y1="14.66" x2="28" y2="10"/><line class="cls-2" x1="28" y1="19.96" x2="28" y2="29.83"/><polygon class="cls-3" points="23.54 21.5 22 16.73 28.46 14.5 30 19.27 23.54 21.5"/><ellipse class="cls-1" cx="12.5" cy="25" rx="3.5" ry="2.5"/><line class="cls-2" x1="7" y1="14.01" x2="7" y2="10"/><line class="cls-2" x1="7" y1="17.99" x2="7" y2="29.83"/><path class="cls-2" d="M7,18a2.48,2.48,0,1,0-1-2A2.48,2.48,0,0,0,7,18Z"/></svg>