<?xml version="1.0" encoding="utf-8"?>
<!-- Generator: Adobe Illustrator 22.0.0, SVG Export Plug-In . SVG Version: 6.00 Build 0)  -->
<svg version="1.1" id="Layer_1" xmlns="http://www.w3.org/2000/svg" xmlns:xlink="http://www.w3.org/1999/xlink" x="0px" y="0px"
	 viewBox="0 0 35 35" style="enable-background:new 0 0 35 35;" xml:space="preserve">
<style type="text/css">
	.st0{fill:none;stroke:#EBEBEB;stroke-miterlimit:10;}
</style>
<g>
	<path class="st0" d="M31.2,20.8l-2.5-1.1c0.2-1.6,0.1-3-0.2-4.3l2.7-1.1c0.2-0.1,0.3-0.4,0.2-0.6l-1.4-3.3
		c-0.1-0.2-0.4-0.3-0.6-0.2l-2.7,1.1C26,10,25,9,23.8,8.2l1.1-2.7c0.1-0.2,0-0.5-0.2-0.6l-3.3-1.4c-0.2-0.1-0.5,0-0.6,0.2l-1.1,2.7
		c-1.4-0.3-2.8-0.3-4.3,0l-1.1-2.7c-0.1-0.2-0.4-0.3-0.6-0.2l-3.3,1.4C10.1,5,10,5.3,10.1,5.5l1.1,2.7C10.1,8.9,9,9.9,8,11.2
		l-2.5-1.1c-0.2-0.1-0.5,0-0.6,0.2l-1.4,3.3c-0.1,0.2,0,0.5,0.2,0.6l2.5,1.1c-0.2,1.6-0.1,3,0.2,4.3l-2.7,1.1
		c-0.2,0.1-0.3,0.4-0.2,0.6l1.4,3.3C5,24.9,5.3,25,5.5,24.9l2.7-1.1c0.8,1.2,1.8,2.2,3,3l-1.1,2.7c-0.1,0.2,0,0.5,0.2,0.6l3.3,1.4
		c0.2,0.1,0.5,0,0.6-0.2l1.1-2.7c1.4,0.3,2.8,0.3,4.3,0l1.1,2.7c0.1,0.2,0.4,0.3,0.6,0.2l3.3-1.4c0.2-0.1,0.3-0.4,0.2-0.6l-1.1-2.7
		c1.1-0.8,2.2-1.7,3.2-3l2.5,1.1c0.2,0.1,0.5,0,0.6-0.2l1.4-3.3C31.6,21.1,31.5,20.8,31.2,20.8z M15.2,23c-3.1-1.3-4.5-4.8-3.2-7.8
		c1.3-3.1,4.8-4.5,7.8-3.2c3.1,1.3,4.5,4.8,3.2,7.8C21.8,22.9,18.3,24.3,15.2,23z"/>
</g>
</svg>
