<?xml version="1.0" encoding="utf-8"?>
<!-- Generator: Adobe Illustrator 22.0.0, SVG Export Plug-In . SVG Version: 6.00 Build 0)  -->
<svg version="1.1" id="Layer_1" xmlns="http://www.w3.org/2000/svg" xmlns:xlink="http://www.w3.org/1999/xlink" x="0px" y="0px"
	 viewBox="0 0 35 35" style="enable-background:new 0 0 35 35;" xml:space="preserve">
<style type="text/css">
	.st0{fill:none;stroke:#EBEBEB;stroke-linecap:round;stroke-linejoin:round;stroke-miterlimit:10;}
</style>
<g>
	<line class="st0" x1="17.5" y1="10.5" x2="33.5" y2="10.5"/>
	<polyline class="st0" points="27.5,3.5 25.5,6 25.5,10.5 	"/>
	<path class="st0" d="M19.5,18.1l-2.8-0.3l-1-2.9c-0.2-0.6-0.8-1-1.4-1H9.1c-0.6,0-1.2,0.4-1.4,1l-1,2.9l-4.6,0.4
		c-0.4,0-0.7,0.4-0.7,0.7v11.8c0,0.4,0.3,0.7,0.7,0.7h19c0.1,0,0.2,0,0.2,0L19.5,18.1z"/>
	<circle class="st0" cx="11.8" cy="24.2" r="4.4"/>
	<polyline class="st0" points="32.5,11 29.5,31.5 21.5,31.5 18.5,11 	"/>
</g>
</svg>
