<svg id="Layer_1" data-name="Layer 1" xmlns="http://www.w3.org/2000/svg" viewBox="0 0 35 35"><defs><style>.cls-1{fill:none;stroke:#ebebeb;stroke-linecap:round;stroke-linejoin:round;}</style></defs><title>Artboard 1</title><path class="cls-1" d="M20,7a3.63,3.63,0,0,0-5,0"/><path class="cls-1" d="M22.15,12.23l-.49,6.89-.74,10.39a3.34,3.34,0,0,1-3.42,3,3.34,3.34,0,0,1-3.42-3l-.74-10.39-.49-6.89-.34-4.74a4.82,4.82,0,0,1,5-5,4.82,4.82,0,0,1,5,5Z"/><path class="cls-1" d="M12.85,12.23,3.65,16.7A2,2,0,0,0,2.5,18.49h0a2.09,2.09,0,0,0,2.49,2l8.35-1.35"/><path class="cls-1" d="M21.66,19.12,30,20.47a2.09,2.09,0,0,0,2.49-2h0a2,2,0,0,0-1.15-1.78l-9.2-4.48"/><path class="cls-1" d="M13.61,26.43,8.68,30.55c-.31.24-.2.95.15.95h6"/><path class="cls-1" d="M21.39,26.43l4.92,4.13c.31.24.2.95-.15.95H20"/></svg>