<?xml version="1.0" encoding="utf-8"?>
<!-- Generator: Adobe Illustrator 22.0.0, SVG Export Plug-In . SVG Version: 6.00 Build 0)  -->
<svg version="1.1" id="Layer_1" xmlns="http://www.w3.org/2000/svg" xmlns:xlink="http://www.w3.org/1999/xlink" x="0px" y="0px"
	 viewBox="0 0 35 35" style="enable-background:new 0 0 35 35;" xml:space="preserve">
<style type="text/css">
	.st0{fill:#EBEBEB;}
	.st1{fill:none;stroke:#EBEBEB;stroke-linejoin:round;stroke-miterlimit:10;}
	.st2{fill:none;stroke:#EBEBEB;stroke-linecap:round;stroke-linejoin:round;stroke-miterlimit:10;}
</style>
<g>
	<g>
		<path class="st0" d="M13.5,16.5c0.6,0,1,0.4,1,1s-0.4,1-1,1s-1-0.4-1-1S12.9,16.5,13.5,16.5 M13.5,15.5c-1.1,0-2,0.9-2,2
			s0.9,2,2,2c1.1,0,2-0.9,2-2S14.6,15.5,13.5,15.5L13.5,15.5z"/>
	</g>
	<g>
		<path class="st0" d="M21.3,16.6c0.5,0,0.9,0.4,0.9,0.9s-0.4,0.9-0.9,0.9s-0.9-0.4-0.9-0.9S20.8,16.6,21.3,16.6 M21.3,15.6
			c-1.1,0-1.9,0.8-1.9,1.9s0.9,1.9,1.9,1.9s1.9-0.8,1.9-1.9S22.4,15.6,21.3,15.6L21.3,15.6z"/>
	</g>
	<g>
		<path class="st0" d="M17.5,16.5c-0.6,0-1,0.4-1,1s0.4,1,1,1c0.6,0,1-0.4,1-1S18.1,16.5,17.5,16.5L17.5,16.5z"/>
	</g>
	<g>
		<path class="st0" d="M26.5,11.5c-0.6,0-1,0.4-1,1s0.4,1,1,1c0.6,0,1-0.4,1-1S27.1,11.5,26.5,11.5L26.5,11.5z"/>
	</g>
	<g>
		<path class="st0" d="M26.5,15.5c-0.6,0-1,0.4-1,1s0.4,1,1,1c0.6,0,1-0.4,1-1S27.1,15.5,26.5,15.5L26.5,15.5z"/>
	</g>
	<g>
		<path class="st0" d="M24.5,13.5c-0.6,0-1,0.4-1,1s0.4,1,1,1c0.6,0,1-0.4,1-1S25.1,13.5,24.5,13.5L24.5,13.5z"/>
	</g>
	<g>
		<path class="st0" d="M28.5,13.5c-0.6,0-1,0.4-1,1s0.4,1,1,1c0.6,0,1-0.4,1-1S29.1,13.5,28.5,13.5L28.5,13.5z"/>
	</g>
	<path class="st1" d="M22.8,20.6c-0.9,1.3-2.4,1.1-3.3-0.1h-4c-0.9,1.2-2.4,1.4-3.3,0.1l-2,0.4c-0.1,0.3-0.2,0.7-0.3,1
		c-0.4,1.1-0.7,2.2-1.4,3.1c-0.7,0.9-1.9,1.6-3,1.4C4,26.3,2.9,25,2.6,23.7c-0.3-1.3,0-2.7,0.3-4.1c0.5-2,0.9-4,1.4-6
		c0.2-0.9,0.4-1.9,0.9-2.8c0.4-0.9,1.1-1.7,2-2.1S9.4,8.4,10.1,9c0.7,0.7,1.9,0.8,2.8,0.4h9.2C23,9.9,24.2,9.7,24.9,9
		c0.8-0.6,1.9-0.7,2.9-0.3c0.9,0.4,1.6,1.2,2,2.1s0.7,1.8,0.9,2.8c0.5,2,0.9,4,1.4,6c0.3,1.3,0.6,2.7,0.3,4.1
		c-0.3,1.3-1.3,2.6-2.8,2.8c-1.2,0.1-2.3-0.5-3-1.4c-0.7-0.9-1.1-2-1.5-3.1c-0.1-0.4-0.2-0.7-0.4-1.1L22.8,20.6z"/>
	<g>
		<line class="st2" x1="6.5" y1="14.5" x2="10.5" y2="14.5"/>
		<line class="st2" x1="8.5" y1="12.5" x2="8.5" y2="16.5"/>
	</g>
</g>
</svg>
