<svg id="Layer_1" data-name="Layer 1" xmlns="http://www.w3.org/2000/svg" viewBox="0 0 35 35"><defs><style>.cls-1{fill:none;stroke:#ebebeb;stroke-linecap:round;stroke-linejoin:round;}</style></defs><title>Artboard 1</title><line class="cls-1" x1="17.5" y1="30.5" x2="25" y2="32.5"/><polyline class="cls-1" points="25 14.5 32.5 12.5 32.5 17 32.5 21.5 32.5 26 32.5 30.5 25 32.5"/><line class="cls-1" x1="25" y1="14.5" x2="24.18" y2="14.28"/><line class="cls-1" x1="10" y1="14.5" x2="10.82" y2="14.28"/><polyline class="cls-1" points="10 14.5 2.5 12.5 2.5 17 2.5 21.5 2.5 26 2.5 30.5 10 32.5"/><line class="cls-1" x1="17.5" y1="30.5" x2="10" y2="32.5"/><line class="cls-1" x1="10" y1="14.5" x2="10" y2="32.5"/><line class="cls-1" x1="25" y1="14.5" x2="25" y2="32.5"/><line class="cls-1" x1="17.5" y1="30.5" x2="17.5" y2="24.5"/><path class="cls-1" d="M10.82,14.28A10.64,10.64,0,0,1,9.5,10.12a7.81,7.81,0,0,1,8-7.62,7.81,7.81,0,0,1,8,7.62,10.64,10.64,0,0,1-1.32,4.17"/><path class="cls-1" d="M10.82,14.28A72.31,72.31,0,0,0,17.5,24.5"/><path class="cls-1" d="M17.5,24.5a72.31,72.31,0,0,0,6.68-10.22"/><ellipse class="cls-1" cx="17.5" cy="10.36" rx="2.4" ry="2.36"/></svg>