<?xml version="1.0" encoding="utf-8"?>
<!-- Generator: Adobe Illustrator 22.0.1, SVG Export Plug-In . SVG Version: 6.00 Build 0)  -->
<svg version="1.1" id="Layer_1" xmlns="http://www.w3.org/2000/svg" xmlns:xlink="http://www.w3.org/1999/xlink" x="0px" y="0px"
	 viewBox="0 0 35 35" style="enable-background:new 0 0 35 35;" xml:space="preserve">
<style type="text/css">
	.st0{fill:none;stroke:#EBEBEB;stroke-linecap:round;stroke-linejoin:round;stroke-miterlimit:10;}
</style>
<title>Artboard 1</title>
<g>
	<line class="st0" x1="10.5" y1="29.5" x2="10.5" y2="31.5"/>
	<line class="st0" x1="24.5" y1="29.5" x2="24.5" y2="31.5"/>
	<path class="st0" d="M25.5,23.5v-3c0-1.7,1.3-3,3-3c1.7,0,3,1.3,3,3s-1.3,3-3,3v3c0,1.7-1.3,3-3,3h-16c-1.7,0-3-1.3-3-3v-3
		c-1.7,0-3-1.3-3-3s1.3-3,3-3c1.7,0,3,1.3,3,3v3"/>
	<line class="st0" x1="12" y1="24" x2="23" y2="24"/>
	<path class="st0" d="M10,7c3.6,2.9,5.4,7,4.9,11"/>
	<path class="st0" d="M25,7c-3.6,2.9-5.4,7-4.9,11"/>
	<path class="st0" d="M27.5,17.6v-4.1c0-5.5-4.5-10-10-10c-5.5,0-10,4.5-10,10v4.1"/>
</g>
</svg>
