<?xml version="1.0" encoding="utf-8"?>
<!-- Generator: Adobe Illustrator 22.0.1, SVG Export Plug-In . SVG Version: 6.00 Build 0)  -->
<svg version="1.1" id="Layer_1" xmlns="http://www.w3.org/2000/svg" xmlns:xlink="http://www.w3.org/1999/xlink" x="0px" y="0px"
	 viewBox="0 0 35 35" style="enable-background:new 0 0 35 35;" xml:space="preserve">
<style type="text/css">
	.st0{fill:none;stroke:#EBEBEB;stroke-linecap:round;stroke-linejoin:round;stroke-miterlimit:10;}
</style>
<g>
	<path class="st0" d="M29.1,2.5H5.9L3.7,8.3c-0.8,2.1-0.1,4.3,1.6,5.8c0.3,0.2,0.6,0.4,1,0.4c1.9,0,1.9-3.6,3.7-3.6
		c1.9,0,1.9,3.4,3.7,3.4c1.9,0,1.9-3.5,3.7-3.5c1.9,0,1.9,3.4,3.8,3.4c1.9,0,1.9-3.5,3.7-3.5c1.9,0,1.9,3.5,3.8,3.5
		c0.3,0,0.6-0.1,0.8-0.2c2-1.2,2.6-3.8,1.7-5.9L29.1,2.5z"/>
	<polyline class="st0" points="5.5,14.5 5.5,32.5 29.5,32.5 29.5,14.5 	"/>
	<path class="st0" d="M13,32.5V22c0-0.6,0.4-1,1-1h7c0.6,0,1,0.4,1,1v10.5"/>
</g>
</svg>
