<?xml version="1.0" encoding="utf-8"?>
<!-- Generator: Adobe Illustrator 22.0.0, SVG Export Plug-In . SVG Version: 6.00 Build 0)  -->
<svg version="1.1" id="Layer_1" xmlns="http://www.w3.org/2000/svg" xmlns:xlink="http://www.w3.org/1999/xlink" x="0px" y="0px"
	 viewBox="0 0 35 35" style="enable-background:new 0 0 35 35;" xml:space="preserve">
<style type="text/css">
	.st0{fill:none;stroke:#EBEBEB;stroke-linecap:round;stroke-linejoin:round;stroke-miterlimit:10;}
</style>
<title>Artboard 1</title>
<g>
	<path class="st0" d="M16.6,31.5c0.3,0,0.6,0,0.9,0"/>
	<path class="st0" d="M17.5,3.5c0.3,0,0.6,0,0.9,0c3.6,0.2,6.7,1.7,9.1,4.1c2.5,2.5,4,6,4,9.8s-1.5,7.3-4,9.8
		c-2.3,2.4-5.5,3.9-9.1,4.1c-0.3,0-0.6,0-0.9,0l-0.9,0c-3.6-0.2-6.7-1.7-9.1-4.1c-2.5-2.5-4-6-4-9.8s1.5-7.3,4-9.8
		c2.3-2.4,5.5-3.9,9.1-4.1C16.9,3.5,17.2,3.5,17.5,3.5z"/>
	<polyline class="st0" points="17.5,3.5 17.5,10.5 17.5,17.5 17.5,24.5 17.5,31.5 	"/>
	<polyline class="st0" points="3.5,17.5 10.5,17.5 17.5,17.5 24.5,17.5 31.5,17.5 	"/>
	<path class="st0" d="M16.6,3.5c-1.9,1.7-3.4,3.8-4.5,6.2c-1.1,2.4-1.7,5-1.7,7.8s0.6,5.4,1.7,7.8c1.1,2.4,2.6,4.5,4.5,6.2"/>
	<path class="st0" d="M7.5,7.7c1.4,0.9,3,1.6,4.6,2.1"/>
	<path class="st0" d="M17.5,10.5c-1.9,0-3.6-0.3-5.3-0.8"/>
	<path class="st0" d="M17.5,10.5c1.9,0,3.6-0.3,5.3-0.8"/>
	<path class="st0" d="M27.5,7.7c-1.4,0.9-3,1.6-4.6,2.1"/>
	<path class="st0" d="M22.8,25.3c-1.7-0.5-3.5-0.8-5.3-0.8"/>
	<path class="st0" d="M12.2,25.3c1.7-0.5,3.5-0.8,5.3-0.8"/>
	<path class="st0" d="M7.5,27.3c1.4-0.9,3-1.6,4.6-2.1"/>
	<path class="st0" d="M27.5,27.3c-1.4-0.9-3-1.6-4.6-2.1"/>
	<path class="st0" d="M18.4,31.5c1.9-1.7,3.4-3.8,4.5-6.2c1.1-2.4,1.7-5,1.7-7.8s-0.6-5.4-1.7-7.8c-1.1-2.4-2.6-4.5-4.5-6.2"/>
</g>
</svg>
