<?xml version="1.0" encoding="utf-8"?>
<!-- Generator: Adobe Illustrator 22.0.0, SVG Export Plug-In . SVG Version: 6.00 Build 0)  -->
<svg version="1.1" id="Layer_1" xmlns="http://www.w3.org/2000/svg" xmlns:xlink="http://www.w3.org/1999/xlink" x="0px" y="0px"
	 viewBox="0 0 35 35" style="enable-background:new 0 0 35 35;" xml:space="preserve">
<style type="text/css">
	.st0{fill:none;stroke:#EBEBEB;stroke-linecap:round;stroke-linejoin:round;stroke-miterlimit:10;}
</style>
<title>Artboard 1</title>
<path class="st0" d="M32.5,13.1c-0.3-1.1-0.2-2.2-0.5-3.3c-0.5-1.4-1.3-2.8-2.5-3.7c-2-1.7-5-2.4-7.6-1.7c-2.5,0.7-4.6,2.6-5.6,5
	c2.6,0.7,4.8,2.7,5.7,5.2c0.4,1.1,0.5,2.3,0.3,3.4c-0.4,1.8-1.7,3.3-2.3,5c-0.1,0.2-0.1,0.3-0.1,0.5c1.5,0.5,3.1,1.1,4.6,1.5
	c0.6,0.2,1.4,0.3,1.9-0.2c0.6-0.7,0.1-1.9,0.7-2.5c0.4-0.3,1-0.3,1.4-0.1c0.9,0.3,1.8,0.7,2.6-0.2c0.5-0.6,0.3-1,0.1-1.6
	c-0.2-0.5,0-0.9,0.4-1.3c0.6-0.6,0.8-1.3,0.7-2.1c0.4,0.1,0.8,0.2,1.2-0.1c0.4-0.2,0.6-0.7,0.5-1.1C33.9,14.8,32.8,14.1,32.5,13.1z"
	/>
<g>
	<path class="st0" d="M16,28.9c0.5-0.2,0.7-0.6,0.6-1.1c-0.3-1.3-0.3-2.7,0.2-4c0.6-1.7,1.9-3.2,2.3-5c0.2-1.1,0.1-2.3-0.3-3.4
		c-0.9-2.5-3.1-4.5-5.7-5.2c-2.6-0.7-5.5,0-7.6,1.7c-1.2,1-2,2.3-2.5,3.7c-0.3,1.1-0.2,2.2-0.5,3.3c-0.2,1-1.4,1.7-1.4,2.7
		c0,0.4,0.2,0.8,0.5,1.1c0.4,0.2,0.8,0.2,1.2,0.1c-0.1,0.8,0.1,1.6,0.7,2.1c0.4,0.3,0.5,0.8,0.4,1.3c-0.2,0.6-0.4,1,0.1,1.6
		c0.7,0.9,1.7,0.5,2.6,0.2c0.5-0.2,1-0.2,1.4,0.1c0.7,0.6,0.1,1.9,0.7,2.5c0.4,0.5,1.2,0.3,1.9,0.2C12.3,30.2,14.2,29.6,16,28.9z"/>
</g>
</svg>
