<?xml version="1.0" encoding="utf-8"?>
<!-- Generator: Adobe Illustrator 22.0.0, SVG Export Plug-In . SVG Version: 6.00 Build 0)  -->
<svg version="1.1" id="Layer_1" xmlns="http://www.w3.org/2000/svg" xmlns:xlink="http://www.w3.org/1999/xlink" x="0px" y="0px"
	 viewBox="0 0 35 35" style="enable-background:new 0 0 35 35;" xml:space="preserve">
<style type="text/css">
	.st0{fill:none;stroke:#EBEBEB;stroke-linecap:round;stroke-linejoin:round;stroke-miterlimit:10;}
</style>
<g>
	<path class="st0" d="M26,29.7c0.6-0.2,1-0.9,0.9-1.5c-0.4-1.9-0.5-3.9,0.2-5.8c0.9-2.5,2.8-4.6,3.3-7.2c0.3-1.6,0.1-3.3-0.4-4.8
		c-1.3-3.6-4.4-6.5-8.2-7.5s-7.9-0.1-10.9,2.4C9.2,6.7,8,8.6,7.3,10.7c-0.5,1.5-0.3,3.1-0.7,4.7c-0.4,1.4-1.9,2.4-2.1,3.8
		c-0.1,0.6,0.2,1.2,0.7,1.5C5.8,21.1,6.4,21,7,20.8c-0.1,1.1,0.1,2.2,1,3c0.5,0.5,0.8,1.2,0.5,1.8c-0.3,0.8-0.6,1.4,0.1,2.3
		c1.1,1.3,2.4,0.7,3.7,0.2c0.7-0.2,1.5-0.3,2,0.1c1,0.8,0.2,2.7,1.1,3.6c0.6,0.7,1.8,0.5,2.7,0.2C20.7,31.6,23.3,30.6,26,29.7z"/>
	<path class="st0" d="M24,8c1.2,0.8,2.1,1.9,2.6,3.1c0.5,1.2,0.5,2.6,0.1,3.9"/>
</g>
</svg>
