<svg id="Layer_1" data-name="Layer 1" xmlns="http://www.w3.org/2000/svg" viewBox="0 0 35 35"><defs><style>.cls-1{fill:none;stroke:#ebebeb;stroke-linecap:round;stroke-linejoin:round;}</style></defs><title>Artboard 1</title><line class="cls-1" x1="4" y1="12.5" x2="31" y2="12.5"/><path class="cls-1" d="M3.65,12.26,8.21,5a1,1,0,0,1,.85-.47H25.95a1,1,0,0,1,.85.47l4.55,7.29a1,1,0,0,1,.15.53V29.5a1,1,0,0,1-1,1H4.5a1,1,0,0,1-1-1V12.79A1,1,0,0,1,3.65,12.26Z"/><line class="cls-1" x1="17.5" y1="4.5" x2="17.5" y2="12.5"/><rect class="cls-1" x="13" y="16" width="9" height="3"/></svg>